/* XPM */
static char * browse_xpm[] = {
"17 17 155 2",
"  	c None",
". 	c #000000",
"+ 	c #A9A9A9",
"@ 	c #252525",
"# 	c #D3D3D3",
"$ 	c #DADADA",
"% 	c #DFDFDF",
"& 	c #E2E2E2",
"* 	c #C1C1C1",
"= 	c #333333",
"- 	c #ADADAD",
"; 	c #121212",
"> 	c #A6A6A6",
", 	c #383737",
"' 	c #B9B9B9",
") 	c #EBEBEB",
"! 	c #F5F5F5",
"~ 	c #FBFBFA",
"{ 	c #F6F6F6",
"] 	c #CCCCCC",
"^ 	c #535353",
"/ 	c #A0A0A0",
"( 	c #989898",
"_ 	c #313131",
": 	c #9E9E9E",
"< 	c #484645",
"[ 	c #AFAEAE",
"} 	c #E6E5E5",
"| 	c #FCFCFB",
"1 	c #D9D9D9",
"2 	c #656565",
"3 	c #5A5A5A",
"4 	c #504F4F",
"5 	c #403F3E",
"6 	c #686868",
"7 	c #140C07",
"8 	c #3D3631",
"9 	c #B2B1B0",
"0 	c #E1E1E0",
"a 	c #ECEBEA",
"b 	c #E9E9E7",
"c 	c #EAE9E7",
"d 	c #D8D8D6",
"e 	c #C4C4C4",
"f 	c #AFAFAF",
"g 	c #9E9D9C",
"h 	c #3F3831",
"i 	c #19160F",
"j 	c #7F4D1A",
"k 	c #373022",
"l 	c #908C81",
"m 	c #B3B0A7",
"n 	c #B9B5AD",
"o 	c #BAB6AD",
"p 	c #B5B2A5",
"q 	c #B1ADA4",
"r 	c #ADA9A3",
"s 	c #B1AEAB",
"t 	c #A5A19F",
"u 	c #524536",
"v 	c #82501E",
"w 	c #4C3801",
"x 	c #6D5616",
"y 	c #6D5F25",
"z 	c #766934",
"A 	c #7B6E39",
"B 	c #80733C",
"C 	c #766935",
"D 	c #706232",
"E 	c #605230",
"F 	c #5E523B",
"G 	c #978E82",
"H 	c #4D3725",
"I 	c #985C21",
"J 	c #CDA300",
"K 	c #F0BF00",
"L 	c #B89303",
"M 	c #C19C06",
"N 	c #C69F07",
"O 	c #C39D09",
"P 	c #BF9A0A",
"Q 	c #BC990B",
"R 	c #C19C07",
"S 	c #C69A0C",
"T 	c #BF8428",
"U 	c #4E3818",
"V 	c #503518",
"W 	c #9F5F1F",
"X 	c #FACA00",
"Y 	c #EFC000",
"Z 	c #F7C500",
"` 	c #F8C700",
" .	c #F7C600",
"..	c #F5C400",
"+.	c #F4C400",
"@.	c #F2C000",
"#.	c #F2BD04",
"$.	c #E1AA08",
"%.	c #BD781E",
"&.	c #56340F",
"*.	c #AE6723",
"=.	c #FAC700",
"-.	c #FECB00",
";.	c #FFCC00",
">.	c #FDC900",
",.	c #F7BE03",
"'.	c #D58D19",
").	c #5C3B0C",
"!.	c #985A1B",
"~.	c #D4A900",
"{.	c #F3C000",
"].	c #FECA00",
"^.	c #F9BE05",
"/.	c #E3A909",
"(.	c #C1781C",
"_.	c #352107",
":.	c #C39A00",
"<.	c #D4A304",
"[.	c #EAAF09",
"}.	c #F1B508",
"|.	c #F2B809",
"1.	c #F5B908",
"2.	c #F4B907",
"3.	c #F4BA08",
"4.	c #F4B809",
"5.	c #EDAE0C",
"6.	c #E8A611",
"7.	c #C17C1D",
"8.	c #3B2308",
"9.	c #2B2000",
"0.	c #A37015",
"a.	c #B57D18",
"b.	c #C0801C",
"c.	c #C2821C",
"d.	c #C3821D",
"e.	c #C4831D",
"f.	c #C7831D",
"g.	c #C88420",
"h.	c #C68220",
"i.	c #B9781F",
"j.	c #AE6C20",
"k.	c #9E5F1F",
"l.	c #1C170F",
"m.	c #493C25",
"n.	c #614F35",
"o.	c #4F3F2A",
"p.	c #52402B",
"q.	c #51402B",
"r.	c #52422B",
"s.	c #503E2A",
"t.	c #463725",
"u.	c #473827",
"v.	c #614D34",
"w.	c #433624",
"x.	c #2B231B",
"                                  ",
"      . . . . . . . . . +         ",
"      @ + # $ % & * = - ; >       ",
"      , ' ) ! ~ { ] ^ / ( _ :     ",
"      < [ } ! | { 1 2 3 4 5 6     ",
"  . 7 8 9 0 a b c d e f g h i .   ",
"  . j k l m n o p q r s t u v .   ",
". . w x y z A B C D E F G H I . + ",
"J K J L M N O P Q R S T U V W . + ",
". J X Y Z `  ...+.@.#.$.%.&.*.. + ",
". K K =.-.;.-.;.;.;.>.,.'.).!.. + ",
"  . ~.{.>.;.;.;.;.-.].^./.(._.. + ",
"  . :.<.[.}.|.1.2.3.4.5.6.7.8.. + ",
"    9.0.a.b.c.d.e.f.g.h.i.j.k.. + ",
"    l.m.n.o.p.q.r.s.t.u.v.w.x.. + ",
"      + + + + + + + + + + + + + + ",
"                                  "};
