/* XPM */
static char * multiple_boxes_xpm[] = {
"17 17 5 1",
" 	c None",
".	c #A5A0A0",
"+	c #000000",
"@	c #FFFFFF",
"#	c #6D49FC",
"..++++++.........",
".@+@@@@+@@@.@@.@.",
".@+@@@@+@@@.@@.@.",
".@+@@@@++++.@@.@.",
".@+@@@++@@+.@@.@.",
"..+@@+++@@+#####.",
".@+@@@++@@+.@@.@.",
".@+@@@@+@+++++.@.",
".@+++++++++@@+.@.",
".@@#@+@@@++@@+.@.",
".@@#@+@@@@+@@+.@.",
"...#.++++++@++...",
".@#@@@@.+@@+++.@.",
".@#@@@@.+@@@++.@.",
".@#@@@@.+@@@@+.@.",
".@#@@@@.++++++.@.",
"................."};
