/* XPM */
static char * multiple_speakers_xpm[] = {
"17 17 8 1",
" 	c None",
".	c #A5A0A0",
"+	c #FFFFFF",
"@	c #000000",
"#	c #FEFEFE",
"$	c #6D49FC",
"%	c #020105",
"&	c #060606",
".................",
".++++++.+++.++.+.",
".++++++.+++.@+.+.",
".++++++.#++@@+.+.",
".++++++@@+@@@+.+.",
".......@@@@@@$$$.",
".+++++$@@@@@@+.@.",
".++#+$@@@@@@@+@@.",
".+@@$@@@@@@@@@@@.",
".+@@@@@@@+@@@@@@.",
".+@@@@@@++@@@@@@.",
"..@@@@@@..@@@@@@.",
".+@@@@@@++@@@@@@.",
".+%@+@@@++&@+@@@.",
".+$+++@@+++.++@@.",
".+$++++@+++.++.@.",
"................."};
