/* XPM */
static char * new_speaker_xpm[] = {
"17 17 9 1",
" 	c None",
".	c #000000",
"+	c #AFACAC",
"@	c #DDD7D7",
"#	c #918F8F",
"$	c #827F7F",
"%	c #605E5E",
"&	c #848383",
"*	c #3A3939",
"                 ",
" ........        ",
" .++++++..       ",
" .++++++.+.    . ",
" .++++++....  .. ",
" .++++++++++..@. ",
" .+#+#+++..+.@@. ",
" .#######.@.@@@. ",
" .##$###$.@@@@@. ",
" .$$$$$$$.@@@@@. ",
" .$$$$$$$.+@@+@. ",
" .%$$%$$%.+++++. ",
" .%%%%%%%.+.&&+. ",
" .*%%%%*%..%.&&. ",
" .**********..&. ",
" ............ .. ",
"               . "};
