/* XPM */
static char * new_box_xpm[] = {
"17 17 14 1",
" 	c None",
".	c #000000",
"+	c #AFACAC",
"@	c #C1B4B4",
"#	c #A09D9D",
"$	c #B0ACAC",
"%	c #DDD7D7",
"&	c #A8A5A5",
"*	c #918F8F",
"=	c #908E8E",
"-	c #827F7F",
";	c #605E5E",
">	c #848383",
",	c #3A3939",
"                 ",
" ........        ",
" .++++++..       ",
" .+++@.......... ",
" .#$+@.%%%%%%%%. ",
" .++++.%%%%%%%%. ",
" .&*+*.%%%%%%%%. ",
" .=***.%%%%%%%%. ",
" .**-*.%%%%%%%%. ",
" .----.++%%%%%.. ",
" .----.+++++..+. ",
" .;--;.+++++.++. ",
" .;;;;.>++++.++. ",
" .,;;;.>>>+>..>. ",
" .,,,,.>>>>>>>.. ",
" ......>>>>>>>>. ",
"      .......... "};
