/* XPM */
static char * new_template_xpm[] = {
"17 17 7 1",
" 	c None",
".	c #000000",
"+	c #AFACAC",
"@	c #918F8F",
"#	c #827F7F",
"$	c #605E5E",
"%	c #3A3939",
"                 ",
" ........        ",
" .++++++..       ",
" .++++++.+.      ",
" .++++++....     ",
" .+++++++++@.    ",
" .+@+@++@++@.    ",
" .@@@@@@@@@@.    ",
" .@@#@@@##@@.    ",
" .##########.    ",
" .##########.    ",
" .$##$##$##$.    ",
" .$$$$$$$$$$.    ",
" .%$$$$%$$%$.    ",
" .%%%%%%%%%%.    ",
" ............    ",
"                 "};
