/* XPM */
static char * new_xml_xpm[] = {
"17 17 6 1",
" 	c None",
".	c #000000",
"+	c #AFACAC",
"@	c #918F8F",
"#	c #EDE6E6",
"$	c #3A3939",
"                 ",
" ........        ",
" .++++++..       ",
" .++++++.+.      ",
" .++++++....     ",
" .+++++++++@.    ",
" .+@+@++@++@.    ",
" ................",
" .##############.",
" .#.#.#..#..#.##.",
" .##.##.#.#.#.##.",
" .#.#.#.###.#..#.",
" .##############.",
" ................",
" .$$$$$$$$$$.    ",
" ............    ",
"                 "};
