/* XPM */
static char * opt_box_xpm[] = {
"17 17 5 1",
" 	c None",
".	c #000000",
"+	c #DDD7D7",
"@	c #AFACAC",
"#	c #848383",
"...............  ",
".+++++++++++++.  ",
".+...+...+...+.  ",
".+.+.+.+.++.++...",
".+.+.+...++.++.+.",
".+...+.++++.++.+.",
".+++++++++++++.+.",
"...............+.",
"       .++++++++.",
"       .@@+++++..",
"       .@@@@@..@.",
"       .@@@@@.@@.",
"       .#@@@@.@@.",
"       .###@#..#.",
"       .#######..",
"       .########.",
"       .........."};
