/* XPM */
static char * plot_template_xpm[] = {
"17 17 4 1",
" 	c None",
".	c #A5A0A0",
"+	c #FFFFFF",
"@	c #6D49FC",
".................",
".++++++.+++.++.+.",
".++++++.+++.++.+.",
".++++++.+++.++.+.",
".++++++.+++.++.+.",
".......@@@@@@@@@.",
".+++++@.+++.++.+.",
".++++@+.+++.++.+.",
".+++@++.+++.++.+.",
".++@+++.+++.++.+.",
".++@+++.+++.++.+.",
"...@.............",
".+@++++.+++.++.+.",
".+@++++.+++.++.+.",
".+@++++.+++.++.+.",
".+@++++.+++.++.+.",
"................."};
