/* XPM */
static char * remove_all_plots_xpm[] = {
"17 17 149 2",
"  	c None",
". 	c #A5A0A0",
"+ 	c #FFFFFF",
"@ 	c #FBFBFB",
"# 	c #DDDDDD",
"$ 	c #A4A4A4",
"% 	c #9D9D9D",
"& 	c #878383",
"* 	c #F9F9F9",
"= 	c #A09B9B",
"- 	c #D6D6D6",
"; 	c #747070",
"> 	c #F6F6F6",
", 	c #B3B3B3",
"' 	c #3D3D3D",
") 	c #260001",
"! 	c #6E0005",
"~ 	c #CC000A",
"{ 	c #FDFDFD",
"] 	c #898585",
"^ 	c #7E7E7E",
"/ 	c #262525",
"( 	c #A19C9C",
"_ 	c #7C7979",
": 	c #450003",
"< 	c #050505",
"[ 	c #0F0A23",
"} 	c #3A2787",
"| 	c #6141E1",
"1 	c #6C48FA",
"2 	c #6C48FB",
"3 	c #6846F2",
"4 	c #593CCF",
"5 	c #392684",
"6 	c #160F34",
"7 	c #131212",
"8 	c #FEFEFE",
"9 	c #DF000B",
"0 	c #9C9C9C",
"a 	c #150E32",
"b 	c #000000",
"c 	c #082B02",
"d 	c #167907",
"e 	c #DADADA",
"f 	c #928E8E",
"g 	c #B5B5B5",
"h 	c #6D6D6D",
"i 	c #212020",
"j 	c #202020",
"k 	c #252424",
"l 	c #F3000B",
"m 	c #6141E2",
"n 	c #157407",
"o 	c #191919",
"p 	c #0A0A0A",
"q 	c #2D2D2D",
"r 	c #6E6E6E",
"s 	c #504D4D",
"t 	c #464646",
"u 	c #1D1D1D",
"v 	c #0F0F0F",
"w 	c #393939",
"x 	c #595757",
"y 	c #28D80D",
"z 	c #6D49FC",
"A 	c #DBDBDB",
"B 	c #525050",
"C 	c #292929",
"D 	c #0B0B0B",
"E 	c #151515",
"F 	c #2E2D2D",
"G 	c #949494",
"H 	c #8D8989",
"I 	c #F4000C",
"J 	c #636363",
"K 	c #060606",
"L 	c #040404",
"M 	c #616161",
"N 	c #E7E7E7",
"O 	c #A29D9D",
"P 	c #F1F1F1",
"Q 	c #7A7777",
"R 	c #545454",
"S 	c #101010",
"T 	c #030303",
"U 	c #262626",
"V 	c #8A8A8A",
"W 	c #918D8D",
"X 	c #A39E9E",
"Y 	c #989393",
"Z 	c #726F6F",
"` 	c #3B3939",
" .	c #121212",
"..	c #0E0D0D",
"+.	c #111010",
"@.	c #312F2F",
"#.	c #6F6B6B",
"$.	c #999494",
"%.	c #F1000B",
"&.	c #E4E4E4",
"*.	c #A6A6A6",
"=.	c #4F4F4F",
"-.	c #121111",
";.	c #131313",
">.	c #414141",
",.	c #7C7C7C",
"'.	c #403E3E",
").	c #242424",
"!.	c #171717",
"~.	c #A5A5A5",
"{.	c #D3000A",
"].	c #8C8C8C",
"^.	c #3C3C3C",
"/.	c #1E1E1E",
"(.	c #5C5C5C",
"_.	c #B2B2B2",
":.	c #E5E5E5",
"<.	c #807C7C",
"[.	c #646464",
"}.	c #181818",
"|.	c #3B3B3B",
"1.	c #6D6A6A",
"2.	c #6745EF",
"3.	c #950007",
"4.	c #090909",
"5.	c #474545",
"6.	c #C6C6C6",
"7.	c #F4F4F4",
"8.	c #9E9999",
"9.	c #C3C3C3",
"0.	c #6A6A6A",
"a.	c #181717",
"b.	c #4A4848",
"c.	c #6443E9",
"d.	c #790005",
"e.	c #2A2A2A",
"f.	c #717171",
"g.	c #827E7E",
"h.	c #F7F7F7",
"i.	c #D4D4D4",
"j.	c #605D5D",
"k.	c #757272",
"l.	c #9F9A9A",
"m.	c #545151",
"n.	c #666363",
"o.	c #8B8787",
"p.	c #9B9696",
"q.	c #969191",
"r.	c #9D9999",
". . . . . . . . . . . . . . . . . ",
". + + + + + + . + + + . + + . + . ",
". + + + + + + . + + + . + + . + . ",
". + + @ # $ % & * + + . + + = - ; ",
". + + > , ' ) ! ~ { + . + * ] ^ / ",
". . . ( _ : < [ } | 1 2 3 4 5 6 7 ",
". + + 8 9 0 a b c d e f g h i j k ",
". + + + l m n o p q r s t u v w x ",
". + + y z { A B C D o 7 E u F G H ",
". + y z I + @ & J E K L u M ; N O ",
". y + z I 8 P Q R S < T U V W { . ",
". . . z X Y Z `  .< S ..+.@.#.$.. ",
". + z %.&.*.=.-.;.>.,.'.).!.F ~.Y ",
". + 1 {.].^./.!.(._.:.<.[.}.K |.1.",
". + 2.3.q 4.j 5.6.7.+ 8.9.0.a.b b.",
". + c.d.S e.f.g.h.+ + . h.i.j.r k.",
". . l._ m.n.o.( . . . . . X p.q.r."};
