/* XPM */
static char * remove_plot_xpm[] = {
"17 17 141 2",
"  	c None",
". 	c #A5A0A0",
"+ 	c #FFFFFF",
"@ 	c #FBFBFB",
"# 	c #DDDDDD",
"$ 	c #A4A4A4",
"% 	c #9D9D9D",
"& 	c #878383",
"* 	c #F9F9F9",
"= 	c #A09B9B",
"- 	c #D6D6D6",
"; 	c #747070",
"> 	c #F6F6F6",
", 	c #B3B3B3",
"' 	c #3D3D3D",
") 	c #282828",
"! 	c #4A4848",
"~ 	c #FDFDFD",
"{ 	c #898585",
"] 	c #7E7E7E",
"^ 	c #262525",
"/ 	c #A19C9C",
"( 	c #7C7979",
"_ 	c #2F2D2D",
": 	c #050505",
"< 	c #0F0A23",
"[ 	c #3A2787",
"} 	c #6141E1",
"| 	c #6C48FA",
"1 	c #6C48FB",
"2 	c #6846F2",
"3 	c #593CCF",
"4 	c #392684",
"5 	c #160F34",
"6 	c #131212",
"7 	c #FEFEFE",
"8 	c #EAEAEA",
"9 	c #9C9C9C",
"0 	c #150E32",
"a 	c #000000",
"b 	c #333333",
"c 	c #909090",
"d 	c #DADADA",
"e 	c #928E8E",
"f 	c #B5B5B5",
"g 	c #6D6D6D",
"h 	c #212020",
"i 	c #202020",
"j 	c #252424",
"k 	c #6141E2",
"l 	c #8A8A8A",
"m 	c #191919",
"n 	c #0A0A0A",
"o 	c #2D2D2D",
"p 	c #6E6E6E",
"q 	c #504D4D",
"r 	c #464646",
"s 	c #1D1D1D",
"t 	c #0F0F0F",
"u 	c #393939",
"v 	c #595757",
"w 	c #6D49FC",
"x 	c #DBDBDB",
"y 	c #525050",
"z 	c #292929",
"A 	c #0B0B0B",
"B 	c #151515",
"C 	c #2E2D2D",
"D 	c #949494",
"E 	c #8D8989",
"F 	c #636363",
"G 	c #060606",
"H 	c #040404",
"I 	c #616161",
"J 	c #E7E7E7",
"K 	c #A29D9D",
"L 	c #F1F1F1",
"M 	c #7A7777",
"N 	c #545454",
"O 	c #101010",
"P 	c #030303",
"Q 	c #262626",
"R 	c #918D8D",
"S 	c #A39E9E",
"T 	c #989393",
"U 	c #726F6F",
"V 	c #3B3939",
"W 	c #121212",
"X 	c #0E0D0D",
"Y 	c #111010",
"Z 	c #312F2F",
"` 	c #6F6B6B",
" .	c #999494",
"..	c #FCFCFC",
"+.	c #E4E4E4",
"@.	c #A6A6A6",
"#.	c #4F4F4F",
"$.	c #121111",
"%.	c #131313",
"&.	c #414141",
"*.	c #7C7C7C",
"=.	c #403E3E",
"-.	c #242424",
";.	c #171717",
">.	c #A5A5A5",
",.	c #8C8C8C",
"'.	c #3C3C3C",
").	c #1E1E1E",
"!.	c #5C5C5C",
"~.	c #B2B2B2",
"{.	c #E5E5E5",
"].	c #807C7C",
"^.	c #646464",
"/.	c #181818",
"(.	c #3B3B3B",
"_.	c #6D6A6A",
":.	c #6745EF",
"<.	c #090909",
"[.	c #474545",
"}.	c #C6C6C6",
"|.	c #F4F4F4",
"1.	c #9E9999",
"2.	c #C3C3C3",
"3.	c #6A6A6A",
"4.	c #181717",
"5.	c #6443E9",
"6.	c #7F7F7F",
"7.	c #2A2A2A",
"8.	c #717171",
"9.	c #827E7E",
"0.	c #F7F7F7",
"a.	c #D4D4D4",
"b.	c #605D5D",
"c.	c #757272",
"d.	c #9F9A9A",
"e.	c #545151",
"f.	c #666363",
"g.	c #8B8787",
"h.	c #9B9696",
"i.	c #969191",
"j.	c #9D9999",
". . . . . . . . . . . . . . . . . ",
". + + + + + + . + + + . + + . + . ",
". + + + + + + . + + + . + + . + . ",
". + + @ # $ % & * + + . + + = - ; ",
". + + > , ' ) ! - ~ + . + * { ] ^ ",
". . . / ( _ : < [ } | 1 2 3 4 5 6 ",
". + + 7 8 9 0 a b c d e f g h i j ",
". + + + 7 k l m n o p q r s t u v ",
". + + + w ~ x y z A m 6 B s C D E ",
". + + w + + @ & F B G H s I ; J K ",
". + + w + 7 L M N O : P Q l R ~ . ",
". . . w S T U V W : O X Y Z `  .. ",
". + w ..+.@.#.$.%.&.*.=.-.;.C >.T ",
". + | # ,.'.).;.!.~.{.].^./.G (._.",
". + :.9 o <.i [.}.|.+ 1.2.3.4.a ! ",
". + 5.6.O 7.8.9.0.+ + . 0.a.b.p c.",
". . d.( e.f.g./ . . . . . S h.i.j."};
